<mxfile host="Electron" modified="2024-02-09T00:58:15.382Z" agent="Mozilla/5.0 (Macintosh; Intel Mac OS X 10_15_7) AppleWebKit/537.36 (KHTML, like Gecko) draw.io/22.1.2 Chrome/114.0.5735.289 Electron/25.9.4 Safari/537.36" etag="lTmq9s_ZxzaGkYaCoVh5" version="22.1.2" type="device">
  <diagram name="Page-1" id="jVVxIJuDWqEeyp6tNlM6">
    <mxGraphModel dx="1804" dy="727" grid="1" gridSize="10" guides="1" tooltips="1" connect="1" arrows="1" fold="1" page="1" pageScale="1" pageWidth="850" pageHeight="1100" math="0" shadow="0">
      <root>
        <mxCell id="0" />
        <mxCell id="1" parent="0" />
        <mxCell id="FvpEl_3jqBanYtJKAiTz-31" value="" style="edgeStyle=orthogonalEdgeStyle;rounded=0;orthogonalLoop=1;jettySize=auto;html=1;strokeColor=#736CA8;fontColor=default;labelBackgroundColor=none;" edge="1" parent="1" source="FvpEl_3jqBanYtJKAiTz-1" target="FvpEl_3jqBanYtJKAiTz-30">
          <mxGeometry relative="1" as="geometry" />
        </mxCell>
        <mxCell id="FvpEl_3jqBanYtJKAiTz-1" value="Analytical ETL" style="shape=process;whiteSpace=wrap;html=1;backgroundOutline=1;labelBackgroundColor=none;fillColor=#5D7F99;strokeColor=#D0CEE2;fontColor=#1A1A1A;rounded=0;" vertex="1" parent="1">
          <mxGeometry x="260" y="290" width="110" height="50" as="geometry" />
        </mxCell>
        <mxCell id="FvpEl_3jqBanYtJKAiTz-3" value="Source1.json" style="rounded=0;whiteSpace=wrap;html=1;labelBackgroundColor=none;fillColor=#5D7F99;strokeColor=#D0CEE2;fontColor=#1A1A1A;" vertex="1" parent="1">
          <mxGeometry x="-20" y="200" width="80" height="60" as="geometry" />
        </mxCell>
        <mxCell id="FvpEl_3jqBanYtJKAiTz-4" value="Source2.csv" style="rounded=0;whiteSpace=wrap;html=1;labelBackgroundColor=none;fillColor=#5D7F99;strokeColor=#D0CEE2;fontColor=#1A1A1A;" vertex="1" parent="1">
          <mxGeometry x="-20" y="320" width="80" height="60" as="geometry" />
        </mxCell>
        <mxCell id="FvpEl_3jqBanYtJKAiTz-5" value="ETL Load&lt;br&gt;(Processed, Accepted)" style="shape=process;whiteSpace=wrap;html=1;backgroundOutline=1;labelBackgroundColor=none;fillColor=#5D7F99;strokeColor=#D0CEE2;fontColor=#1A1A1A;rounded=0;" vertex="1" parent="1">
          <mxGeometry x="120" y="465" width="110" height="60" as="geometry" />
        </mxCell>
        <mxCell id="FvpEl_3jqBanYtJKAiTz-6" value="Rejected Files" style="rounded=0;whiteSpace=wrap;html=1;labelBackgroundColor=none;fillColor=#5D7F99;strokeColor=#D0CEE2;fontColor=#1A1A1A;" vertex="1" parent="1">
          <mxGeometry x="270" y="180" width="100" height="40" as="geometry" />
        </mxCell>
        <mxCell id="FvpEl_3jqBanYtJKAiTz-7" value="Rejected CSV" style="rounded=0;whiteSpace=wrap;html=1;labelBackgroundColor=none;fillColor=#5D7F99;strokeColor=#D0CEE2;fontColor=#1A1A1A;" vertex="1" parent="1">
          <mxGeometry x="260" y="80" width="65" height="30" as="geometry" />
        </mxCell>
        <mxCell id="FvpEl_3jqBanYtJKAiTz-8" value="Rejected JSON" style="rounded=0;whiteSpace=wrap;html=1;labelBackgroundColor=none;fillColor=#5D7F99;strokeColor=#D0CEE2;fontColor=#1A1A1A;" vertex="1" parent="1">
          <mxGeometry x="345" y="80" width="60" height="30" as="geometry" />
        </mxCell>
        <mxCell id="FvpEl_3jqBanYtJKAiTz-9" value="Accepted JSON" style="rounded=0;whiteSpace=wrap;html=1;labelBackgroundColor=none;fillColor=#5D7F99;strokeColor=#D0CEE2;fontColor=#1A1A1A;" vertex="1" parent="1">
          <mxGeometry x="480" y="260" width="80" height="50" as="geometry" />
        </mxCell>
        <mxCell id="FvpEl_3jqBanYtJKAiTz-10" value="Ingestion&lt;br&gt;(JSON)" style="shape=process;whiteSpace=wrap;html=1;backgroundOutline=1;labelBackgroundColor=none;fillColor=#5D7F99;strokeColor=#D0CEE2;fontColor=#1A1A1A;rounded=0;" vertex="1" parent="1">
          <mxGeometry x="120" y="200" width="110" height="60" as="geometry" />
        </mxCell>
        <mxCell id="FvpEl_3jqBanYtJKAiTz-11" value="Ingestion&lt;br&gt;(CSV)" style="shape=process;whiteSpace=wrap;html=1;backgroundOutline=1;labelBackgroundColor=none;fillColor=#5D7F99;strokeColor=#D0CEE2;fontColor=#1A1A1A;rounded=0;" vertex="1" parent="1">
          <mxGeometry x="120" y="330" width="110" height="60" as="geometry" />
        </mxCell>
        <mxCell id="FvpEl_3jqBanYtJKAiTz-13" value="" style="endArrow=classic;html=1;rounded=0;entryX=0;entryY=0.5;entryDx=0;entryDy=0;labelBackgroundColor=none;strokeColor=#736CA8;fontColor=default;exitX=1;exitY=0.5;exitDx=0;exitDy=0;" edge="1" parent="1" source="FvpEl_3jqBanYtJKAiTz-3" target="FvpEl_3jqBanYtJKAiTz-10">
          <mxGeometry width="50" height="50" relative="1" as="geometry">
            <mxPoint x="90" y="230" as="sourcePoint" />
            <mxPoint x="140" y="180" as="targetPoint" />
          </mxGeometry>
        </mxCell>
        <mxCell id="FvpEl_3jqBanYtJKAiTz-14" value="" style="endArrow=classic;html=1;rounded=0;exitX=1;exitY=0.5;exitDx=0;exitDy=0;labelBackgroundColor=none;strokeColor=#736CA8;fontColor=default;" edge="1" parent="1" source="FvpEl_3jqBanYtJKAiTz-4">
          <mxGeometry width="50" height="50" relative="1" as="geometry">
            <mxPoint x="100" y="240" as="sourcePoint" />
            <mxPoint x="120" y="350" as="targetPoint" />
          </mxGeometry>
        </mxCell>
        <mxCell id="FvpEl_3jqBanYtJKAiTz-17" value="" style="endArrow=classic;html=1;rounded=0;entryX=0;entryY=0.25;entryDx=0;entryDy=0;labelBackgroundColor=none;strokeColor=#736CA8;fontColor=default;" edge="1" parent="1" target="FvpEl_3jqBanYtJKAiTz-1">
          <mxGeometry width="50" height="50" relative="1" as="geometry">
            <mxPoint x="230" y="260" as="sourcePoint" />
            <mxPoint x="250" y="180" as="targetPoint" />
          </mxGeometry>
        </mxCell>
        <mxCell id="FvpEl_3jqBanYtJKAiTz-18" value="" style="endArrow=classic;html=1;rounded=0;entryX=0;entryY=0.5;entryDx=0;entryDy=0;labelBackgroundColor=none;strokeColor=#736CA8;fontColor=default;exitX=1;exitY=0.25;exitDx=0;exitDy=0;" edge="1" parent="1" source="FvpEl_3jqBanYtJKAiTz-11" target="FvpEl_3jqBanYtJKAiTz-1">
          <mxGeometry width="50" height="50" relative="1" as="geometry">
            <mxPoint x="200" y="360" as="sourcePoint" />
            <mxPoint x="260" y="425" as="targetPoint" />
          </mxGeometry>
        </mxCell>
        <mxCell id="FvpEl_3jqBanYtJKAiTz-19" value="" style="endArrow=classic;html=1;rounded=0;entryX=0.5;entryY=1;entryDx=0;entryDy=0;labelBackgroundColor=none;strokeColor=#736CA8;fontColor=default;exitX=0.63;exitY=-0.125;exitDx=0;exitDy=0;exitPerimeter=0;" edge="1" parent="1" source="FvpEl_3jqBanYtJKAiTz-6" target="FvpEl_3jqBanYtJKAiTz-8">
          <mxGeometry width="50" height="50" relative="1" as="geometry">
            <mxPoint x="350" y="170" as="sourcePoint" />
            <mxPoint x="510" y="150" as="targetPoint" />
            <Array as="points">
              <mxPoint x="350" y="150" />
            </Array>
          </mxGeometry>
        </mxCell>
        <mxCell id="FvpEl_3jqBanYtJKAiTz-20" value="" style="endArrow=classic;html=1;rounded=0;entryX=0.5;entryY=1;entryDx=0;entryDy=0;labelBackgroundColor=none;strokeColor=#736CA8;fontColor=default;exitX=0.4;exitY=-0.075;exitDx=0;exitDy=0;exitPerimeter=0;" edge="1" parent="1" source="FvpEl_3jqBanYtJKAiTz-6" target="FvpEl_3jqBanYtJKAiTz-7">
          <mxGeometry width="50" height="50" relative="1" as="geometry">
            <mxPoint x="430" y="200" as="sourcePoint" />
            <mxPoint x="480" y="150" as="targetPoint" />
          </mxGeometry>
        </mxCell>
        <mxCell id="FvpEl_3jqBanYtJKAiTz-21" value="" style="endArrow=classic;html=1;rounded=0;labelBackgroundColor=none;strokeColor=#736CA8;fontColor=default;entryX=0;entryY=0.25;entryDx=0;entryDy=0;exitX=1;exitY=0.75;exitDx=0;exitDy=0;" edge="1" parent="1" source="FvpEl_3jqBanYtJKAiTz-1" target="FvpEl_3jqBanYtJKAiTz-29">
          <mxGeometry width="50" height="50" relative="1" as="geometry">
            <mxPoint x="370" y="320" as="sourcePoint" />
            <mxPoint x="455" y="240" as="targetPoint" />
          </mxGeometry>
        </mxCell>
        <mxCell id="FvpEl_3jqBanYtJKAiTz-22" value="" style="endArrow=classic;html=1;rounded=0;labelBackgroundColor=none;strokeColor=#736CA8;fontColor=default;entryX=-0.075;entryY=0.76;entryDx=0;entryDy=0;entryPerimeter=0;exitX=1;exitY=0.25;exitDx=0;exitDy=0;endFill=1;" edge="1" parent="1" source="FvpEl_3jqBanYtJKAiTz-1" target="FvpEl_3jqBanYtJKAiTz-9">
          <mxGeometry width="50" height="50" relative="1" as="geometry">
            <mxPoint x="370" y="322" as="sourcePoint" />
            <mxPoint x="420" y="290" as="targetPoint" />
          </mxGeometry>
        </mxCell>
        <mxCell id="FvpEl_3jqBanYtJKAiTz-27" value="EOD Trade Quote" style="shape=cylinder3;whiteSpace=wrap;html=1;boundedLbl=1;backgroundOutline=1;size=15;strokeColor=#D0CEE2;fontColor=#1A1A1A;fillColor=#5D7F99;labelBackgroundColor=none;rounded=0;" vertex="1" parent="1">
          <mxGeometry x="620" y="450" width="70" height="90" as="geometry" />
        </mxCell>
        <mxCell id="FvpEl_3jqBanYtJKAiTz-29" value="Accepted&amp;nbsp;&lt;br&gt;CSV" style="rounded=0;whiteSpace=wrap;html=1;strokeColor=#D0CEE2;fontColor=#1A1A1A;fillColor=#5D7F99;labelBackgroundColor=none;" vertex="1" parent="1">
          <mxGeometry x="480" y="325" width="80" height="50" as="geometry" />
        </mxCell>
        <mxCell id="FvpEl_3jqBanYtJKAiTz-30" value="" style="shape=singleArrow;whiteSpace=wrap;html=1;arrowWidth=0.4;arrowSize=0.4;fillColor=#5D7F99;strokeColor=#D0CEE2;fontColor=#1A1A1A;labelBackgroundColor=none;direction=north;rounded=0;" vertex="1" parent="1">
          <mxGeometry x="290" y="225" width="55" height="65" as="geometry" />
        </mxCell>
        <mxCell id="FvpEl_3jqBanYtJKAiTz-37" value="" style="endArrow=classic;html=1;rounded=0;strokeColor=#736CA8;fontColor=default;entryX=0;entryY=0;entryDx=0;entryDy=60;entryPerimeter=0;labelBackgroundColor=none;" edge="1" parent="1" target="FvpEl_3jqBanYtJKAiTz-27">
          <mxGeometry width="50" height="50" relative="1" as="geometry">
            <mxPoint x="200" y="510" as="sourcePoint" />
            <mxPoint x="250" y="460" as="targetPoint" />
          </mxGeometry>
        </mxCell>
        <mxCell id="FvpEl_3jqBanYtJKAiTz-38" value="" style="endArrow=classic;html=1;rounded=0;labelBackgroundColor=none;strokeColor=#736CA8;fontColor=default;entryX=0;entryY=0.5;entryDx=0;entryDy=0;entryPerimeter=0;" edge="1" parent="1" target="FvpEl_3jqBanYtJKAiTz-40">
          <mxGeometry width="50" height="50" relative="1" as="geometry">
            <mxPoint x="560" y="290" as="sourcePoint" />
            <mxPoint x="620" y="310" as="targetPoint" />
            <Array as="points" />
          </mxGeometry>
        </mxCell>
        <mxCell id="FvpEl_3jqBanYtJKAiTz-39" value="" style="endArrow=classic;html=1;rounded=0;strokeColor=#736CA8;fontColor=default;exitX=1;exitY=0.75;exitDx=0;exitDy=0;entryX=0;entryY=0;entryDx=0;entryDy=52.5;entryPerimeter=0;labelBackgroundColor=none;" edge="1" parent="1" source="FvpEl_3jqBanYtJKAiTz-29" target="FvpEl_3jqBanYtJKAiTz-40">
          <mxGeometry width="50" height="50" relative="1" as="geometry">
            <mxPoint x="600" y="345" as="sourcePoint" />
            <mxPoint x="630" y="365" as="targetPoint" />
          </mxGeometry>
        </mxCell>
        <mxCell id="FvpEl_3jqBanYtJKAiTz-40" value="Quote-Trade-Analytical" style="shape=cylinder3;whiteSpace=wrap;html=1;boundedLbl=1;backgroundOutline=1;size=15;strokeColor=#D0CEE2;fontColor=#1A1A1A;fillColor=#5D7F99;labelBackgroundColor=none;rounded=0;" vertex="1" parent="1">
          <mxGeometry x="625" y="280" width="70" height="90" as="geometry" />
        </mxCell>
      </root>
    </mxGraphModel>
  </diagram>
</mxfile>
